# xmcd CD database file
#
# Track frame offsets:
#	187
#	17392
#	35547
#	45400
#	62397
#	76907
#	92537
#	103107
#	121262
#	135647
#
# Disc length: 2116 seconds
#
# Revision: 0
# Processed by: cddbd v1.4PL0 Copyright (c) Steve Scherf et al.
# Submitted via: CDex 1.40PlusFr
#
DISCID=6c08420a
DTITLE=The Rosewood Praise Band and Singers - Country Praise
DYEAR=1994
DGENRE=Country
TTITLE0=We Bring A Sacrifice Of Praise - We Bow Down
TTITLE1=Great Is Thy Faithfulness
TTITLE2=God Can Do
TTITLE3=Under Your Will - I Give All To You
TTITLE4=As The Deer - We will Glorify
TTITLE5=How Majectic Is Your Name - Great Is The Lord
TTITLE6=I Am Confident Of This
TTITLE7=Give Me A Faithful Heart - The King Of Who I Am
TTITLE8=Only For Your Praise
TTITLE9=That I Might Magnify Your Name - Praise The Name Of Jesus
EXTD=YEAR: 1994 ID3G: 2
EXTT0=
EXTT1=
EXTT2=
EXTT3=
EXTT4=
EXTT5=
EXTT6=
EXTT7=
EXTT8=
EXTT9=
PLAYORDER=
